<svg width="240" height="363" viewBox="0 0 240 363" fill="none" xmlns="http://www.w3.org/2000/svg">
<path d="M1.03557e-06 128.297L0 152.458H240V128.297L1.03557e-06 128.297Z" fill="url(#paint0_linear_260_1070)"/>
<path d="M240 104.698V68.5379C240 50.3605 232.775 32.9277 219.916 20.0743C207.056 7.22097 189.615 2.43437e-05 171.429 2.43437e-05C161.696 -0.00818391 152.075 2.05945 143.206 6.06485C134.337 10.0703 126.426 15.9212 120 23.2268C110.789 12.787 98.6151 5.39816 85.0993 2.04309C71.5835 -1.31198 57.366 -0.474179 44.3383 4.44502C31.3105 9.36421 20.0901 18.1316 12.1697 29.5808C4.24937 41.0301 0.00456018 54.6183 1.57836e-06 68.5379L0 104.698H25.2361L25.2361 68.7799C25.2361 57.2469 29.8196 46.1825 37.9844 38.0217C46.1498 29.8603 57.2283 25.2719 68.784 25.2719C82.2133 25.2719 92.8502 31.5057 100.471 38.2988C104.256 41.6728 107.15 45.0625 109.085 47.5953C110.048 48.8551 110.759 49.8842 111.211 50.5677C111.437 50.9089 111.597 51.1622 111.691 51.3131C111.738 51.3885 111.768 51.4381 111.781 51.4601L111.783 51.4622L111.789 51.4722L111.789 51.4732L120.922 67.0763L128.954 50.8892L128.955 50.8887L128.958 50.8829C128.967 50.8647 128.988 50.8252 129.02 50.7654C129.092 50.6306 129.221 50.3941 129.409 50.0704C129.784 49.4216 130.389 48.4304 131.231 47.2104C132.924 44.7574 135.519 41.4572 139.065 38.1659C146.105 31.6307 156.692 25.2719 171.641 25.2719C183.197 25.2719 194.276 29.8603 202.441 38.0217C210.606 46.1824 215.189 57.2468 215.189 68.7799V104.698H240Z" fill="url(#paint1_linear_260_1070)"/>
<path d="M14.4967 180.403L119.195 362.417L223.893 180.403H192.949L119.195 308.622L45.4409 180.403H14.4967Z" fill="url(#paint2_linear_260_1070)"/>
<defs>
<linearGradient id="paint0_linear_260_1070" x1="283.073" y1="123.417" x2="263.78" y2="210.738" gradientUnits="userSpaceOnUse">
<stop stop-color="#E70CA2"/>
<stop offset="1" stop-color="#8343D8"/>
</linearGradient>
<linearGradient id="paint1_linear_260_1070" x1="283.073" y1="-21.1464" x2="84.83" y2="185.915" gradientUnits="userSpaceOnUse">
<stop stop-color="#E70CA2"/>
<stop offset="1" stop-color="#8343D8"/>
</linearGradient>
<linearGradient id="paint2_linear_260_1070" x1="261.473" y1="143.641" x2="-22.2286" y2="292.356" gradientUnits="userSpaceOnUse">
<stop stop-color="#E70CA2"/>
<stop offset="1" stop-color="#8343D8"/>
</linearGradient>
</defs>
</svg>
